<svg width="510" height="487" viewBox="0 0 510 487" fill="none" xmlns="http://www.w3.org/2000/svg">
<path d="M76.7366 277.27C73.5386 275.732 68.1517 272.522 64.8198 271.268C61.5264 269.842 57.852 269.591 54.3987 270.554C52.441 271.218 50.4832 272.805 50.471 274.896L63.543 284.65L76.7366 281.132V277.27Z" fill="#FF9A6C"/>
<path d="M62.4365 277.135C62.4365 277.135 38.9555 271.981 35.04 269.951C31.1245 267.922 10.72 257.59 7.30304 257.59C3.88608 257.59 0.967679 258.525 0.347519 261.969L4.81024 265.474L5.38176 267.27L13.0182 271.292L14.368 273.826L33.824 284.33C33.824 284.33 54.2285 294.81 57.6333 295.4C61.0381 295.991 78.0378 297.43 85.3094 303.69L114.493 291.563C114.493 291.563 106.067 279.459 99.5731 276.47C93.785 273.814 84.0691 273.814 77.2717 276.63L62.4365 277.135Z" fill="#FFBF9D"/>
<path d="M81.9654 296.95C81.9654 296.95 119.114 378.893 125.097 395.35C125.097 395.35 166.623 388.437 168.046 365.129L114.542 291.329L81.9654 296.95Z" fill="#FFBF9D"/>
<path d="M47.4675 278.992C47.4675 278.992 47.3216 278.992 47.0663 278.992C46.6864 278.953 46.3115 278.875 45.9475 278.758C44.6158 278.348 43.3219 277.821 42.0807 277.184C40.4999 276.409 38.6637 275.388 36.6451 274.244C35.6359 273.678 34.5779 273.076 33.4714 272.498C32.3648 271.92 31.161 271.415 29.9328 270.874C27.6588 269.832 25.3091 268.969 22.9043 268.291C20.7034 267.738 18.5875 267.319 16.9946 267.861C16.3767 268.111 15.8161 268.487 15.3476 268.965C14.8791 269.443 14.5126 270.013 14.2707 270.64C14.0911 271.119 13.884 271.588 13.6506 272.043C13.6506 272.043 13.6506 271.895 13.7114 271.649C13.7927 271.272 13.9024 270.902 14.0397 270.542C14.2546 269.968 14.545 269.426 14.9031 268.931C15.3763 268.253 16.0359 267.731 16.8 267.43C17.7426 267.111 18.7442 267.01 19.7306 267.135C20.8336 267.245 21.927 267.438 23.0016 267.713C25.4577 268.368 27.857 269.223 30.176 270.271C31.392 270.813 32.608 271.317 33.7389 271.92C34.8698 272.522 35.9155 273.15 36.9248 273.728C38.9312 274.896 40.7309 275.954 42.2752 276.766C43.4718 277.427 44.7109 278.006 45.984 278.5C46.9325 278.857 47.4675 278.931 47.4675 278.992Z" fill="#FF9A6C"/>
<path d="M25.0688 267.209C23.924 266.975 22.8156 266.586 21.7735 266.052C19.2655 264.855 16.6867 263.816 14.0519 262.941C12.6101 262.527 11.1034 262.398 9.61345 262.559C9.01894 262.577 8.43429 262.718 7.89498 262.971C7.35568 263.225 6.87297 263.587 6.47617 264.035C6.0006 264.702 5.68806 265.473 5.56417 266.286C5.55315 266.602 5.49155 266.913 5.38177 267.209C5.32489 266.896 5.32489 266.575 5.38177 266.261C5.42724 265.384 5.70437 264.534 6.18433 263.801C6.55655 263.289 7.03883 262.868 7.59489 262.571C8.2309 262.266 8.91329 262.07 9.61345 261.993C11.1818 261.794 12.7739 261.915 14.2951 262.35C16.9673 263.217 19.5559 264.329 22.0288 265.671C23.0687 266.128 24.0835 266.641 25.0688 267.209Z" fill="#FF9A6C"/>
<path d="M83.68 274.81C83.68 274.81 83.3517 275.007 82.7315 275.228C81.8422 275.553 80.9372 275.832 80.0198 276.065C77.0011 276.859 73.907 277.325 70.7904 277.454C67.6746 277.591 64.5532 277.401 61.4758 276.889C60.2598 276.68 59.36 276.471 58.7155 276.286C58.3707 276.234 58.0375 276.121 57.7306 275.954C57.7306 275.855 59.1898 276.138 61.5488 276.434C64.6057 276.816 67.6885 276.944 70.7661 276.815C73.8459 276.654 76.908 276.243 79.9226 275.585C82.1722 275.142 83.5949 274.724 83.68 274.81Z" fill="#FF9A6C"/>
<path d="M429.559 226.164L375.52 214.847L362.144 204.7L290.765 218.624C289.622 220.739 278.058 237.074 278.058 237.074L249.944 246.729C237.995 249.905 227.33 256.787 219.446 266.409C211.95 275.774 205.809 286.169 201.206 297.282C188.56 327.306 170.308 361.992 170.308 361.992L158.865 343.346L110.639 366.322C110.639 366.322 138.886 423.923 148.237 432.152C158.634 441.291 182.541 442.348 199.066 425.301C209.025 415.018 237.808 374.379 243.803 364.206L252.704 406.74L260.888 455.288L247.658 488.707H440.758L432.769 457.121C432.769 457.121 440.637 374.797 442.813 359.471C447.933 323.321 429.559 226.164 429.559 226.164Z" fill="#5ED8FF"/>
<path d="M429.559 226.164C429.559 226.164 468.228 237.135 476.74 276.015C481.896 299.57 499.406 366.716 505.571 421.992C509.219 454.857 509.122 485.226 509.219 488.707H449.878L424.732 237.135L429.559 226.164Z" fill="#5ED8FF"/>
<path d="M330.382 259.546C330.382 259.546 330.382 259.693 330.224 259.952L329.677 261.083C329.19 262.079 328.461 263.543 327.67 265.401C325.956 269.091 323.937 274.564 320.678 280.677L320.52 280.985L320.253 280.751C316.24 277.295 311.887 273.137 307.388 268.648C299.423 260.653 292.443 253.211 287.287 247.934L281.146 241.698L279.456 240.013C279.25 239.827 279.063 239.621 278.897 239.398C279.132 239.548 279.348 239.726 279.541 239.927L281.292 241.526C282.8 242.928 284.94 245.007 287.579 247.615C292.82 252.818 299.86 260.21 307.801 268.193C312.3 272.682 316.629 276.803 320.593 280.32L320.156 280.394C323.439 274.367 325.53 268.918 327.33 265.253C328.218 263.396 328.959 261.969 329.494 260.997C329.738 260.567 329.944 260.198 330.115 259.915C330.19 259.782 330.28 259.659 330.382 259.546Z" fill="black"/>
<path d="M376.274 216.237C376.27 216.528 376.233 216.817 376.164 217.098C376.043 217.713 375.897 218.525 375.715 219.558C375.277 221.674 374.499 224.724 373.501 228.439C371.398 235.819 367.993 246.016 363.773 257.024C361.548 262.854 359.359 268.365 357.316 273.248L357.158 273.629L356.854 273.359C351.346 268.439 346.409 264.564 343.065 261.686C341.387 260.247 340.074 259.091 339.186 258.279L338.201 257.344C337.97 257.123 337.86 257.012 337.873 257C338.013 257.074 338.143 257.164 338.262 257.27L339.307 258.144L343.284 261.415C346.701 264.22 351.674 268.02 357.243 272.916L356.781 273.026C358.788 268.106 360.964 262.621 363.178 256.803C367.348 245.733 370.814 235.708 373.015 228.316C374.109 224.626 374.912 221.6 375.447 219.497C375.678 218.501 375.873 217.701 376.019 217.037C376.084 216.764 376.169 216.497 376.274 216.237Z" fill="black"/>
<path d="M251.184 401.291C251.133 401.207 251.096 401.116 251.075 401.02L250.819 400.184C250.6 399.364 250.296 398.282 249.907 396.937C249.494 395.535 249.092 393.8 248.606 391.783C248.12 389.766 247.597 387.453 247.074 384.895C244.384 371.55 242.491 358.053 241.407 344.477C240.033 328.573 239.729 314.121 239.802 303.678C239.802 298.451 239.936 294.219 240.082 291.304C240.155 289.878 240.204 288.758 240.24 287.934C240.24 287.59 240.24 287.295 240.301 287.061C240.288 286.963 240.288 286.864 240.301 286.766C240.311 286.868 240.311 286.971 240.301 287.073V287.946C240.301 288.771 240.301 289.89 240.301 291.304C240.301 294.232 240.204 298.451 240.228 303.678C240.228 314.109 240.641 328.549 242.015 344.416C243.109 357.971 244.936 371.456 247.487 384.809C247.986 387.367 248.448 389.729 248.922 391.697C249.396 393.665 249.749 395.473 250.138 396.875L250.941 400.147L251.123 400.996C251.184 401.193 251.196 401.291 251.184 401.291Z" fill="black"/>
<path d="M432.769 269.287C432.841 269.394 432.899 269.509 432.939 269.632C433.049 269.89 433.195 270.222 433.365 270.64C433.754 271.575 434.277 272.891 434.958 274.552C435.299 275.413 435.7 276.348 436.089 277.393L437.244 280.837C437.658 282.067 438.095 283.408 438.57 284.81C439.044 286.212 439.36 287.75 439.786 289.336C443.434 301.993 445.258 320.308 444.212 340.344C443.166 360.381 440.831 378.474 439.348 391.463C438.606 397.958 437.998 403.234 437.572 406.924C437.366 408.708 437.195 410.122 437.074 411.119L436.928 412.213C436.919 412.339 436.895 412.463 436.855 412.582C436.839 412.46 436.839 412.336 436.855 412.213L436.94 411.106C437.037 410.098 437.171 408.646 437.329 406.9C437.67 403.21 438.205 397.945 438.898 391.414C440.223 378.351 442.461 360.32 443.531 340.32C444.601 320.32 442.801 302.104 439.311 289.447L438.095 284.921L436.879 280.96C436.49 279.73 436.125 278.561 435.785 277.504C435.444 276.446 435.031 275.499 434.703 274.638C434.07 272.953 433.584 271.637 433.219 270.689C433.073 270.259 432.952 269.927 432.854 269.656C432.807 269.538 432.779 269.414 432.769 269.287Z" fill="black"/>
<path d="M170.624 403.874C170.454 403.874 170.247 394.501 170.174 382.964C170.101 371.427 170.174 362.054 170.356 362.054C170.539 362.054 170.733 371.427 170.806 382.964C170.879 394.501 170.806 403.874 170.624 403.874Z" fill="black"/>
<path d="M346.093 460.638V460.122C346.093 459.753 346.19 459.261 346.263 458.621C346.433 457.268 346.664 455.337 346.968 452.852C347.126 451.622 347.297 450.208 347.491 448.695C347.686 447.182 347.832 445.509 348.014 443.775C348.367 440.208 348.853 436.161 349.23 431.66C349.412 429.421 349.595 427.059 349.802 424.612C350.008 422.164 350.106 419.606 350.264 416.961C350.628 411.672 350.787 406.002 350.993 400.049C351.261 388.13 351.224 375.018 350.616 361.279C350.008 347.54 348.768 334.477 347.394 322.632C346.628 316.716 345.959 311.095 345.096 305.867C344.694 303.248 344.342 300.714 343.88 298.291C343.418 295.868 343.041 293.543 342.664 291.317C341.922 286.876 341.071 282.891 340.378 279.373C340.025 277.614 339.709 275.978 339.405 274.453C339.101 272.928 338.772 271.587 338.493 270.357L337.277 264.687C337.155 264.06 337.046 263.568 336.973 263.211C336.9 262.854 336.888 262.694 336.888 262.694C336.949 262.854 336.998 263.019 337.034 263.186L337.411 264.65L338.76 270.308L339.721 274.392C340.037 275.892 340.378 277.516 340.755 279.312C341.472 282.817 342.36 286.802 343.126 291.243C343.531 293.465 343.936 295.79 344.342 298.217C344.78 300.677 345.132 303.137 345.558 305.794C346.433 311.033 347.126 316.655 347.917 322.571C349.315 334.428 350.507 347.503 351.188 361.254C351.869 375.006 351.82 388.142 351.516 400.073C351.285 406.039 351.115 411.709 350.726 416.998C350.556 419.642 350.434 422.201 350.227 424.661C350.02 427.121 349.802 429.47 349.607 431.721C349.267 436.223 348.744 440.331 348.391 443.824C348.184 445.608 347.99 447.268 347.82 448.744C347.649 450.22 347.418 451.647 347.236 452.902C346.883 455.362 346.604 457.305 346.421 458.646L346.19 460.146C346.172 460.313 346.139 460.477 346.093 460.638Z" fill="black"/>
<path d="M371.799 327.872H372.042L372.808 327.786L375.787 327.442L387.181 326.212L427.735 321.956H428.039V322.263C428.343 334.674 428.708 348.721 429.085 363.616V363.751L429 363.837L424.136 369.163L406.406 388.327L406.248 388.499L406.042 388.388L376.164 373.382L376.031 373.321V373.21C374.73 359.495 373.599 348.155 372.906 340.197C372.541 336.285 372.261 333.21 372.067 331.082C371.981 330.062 371.908 329.274 371.86 328.696C371.811 328.118 371.86 327.909 371.86 327.909C371.86 327.909 371.86 328.204 371.969 328.745C372.079 329.287 372.127 330.135 372.249 331.205C372.468 333.358 372.796 336.445 373.222 340.381C374.036 348.278 375.192 359.557 376.602 373.198L376.456 372.989L406.37 387.908L406.017 387.97L423.71 368.733L428.574 363.419L428.489 363.641C428.136 348.745 427.796 334.711 427.504 322.288L427.82 322.559L387.388 326.47L375.921 327.552L372.869 327.823L372.079 327.897L371.799 327.872Z" fill="black"/>
<path d="M428.112 336.531C427.423 336.725 426.719 336.861 426.008 336.937C424.646 337.159 422.676 337.442 420.232 337.761C415.368 338.389 408.571 339.114 401.092 339.84L381.928 341.734L376.128 342.349C375.424 342.464 374.713 342.517 374 342.509C374.689 342.316 375.393 342.18 376.104 342.103C377.466 341.882 379.436 341.599 381.88 341.279C386.744 340.652 393.541 339.926 401.032 339.2L420.184 337.306L425.984 336.691C426.688 336.577 427.399 336.523 428.112 336.531Z" fill="black"/>
<g opacity="0.3">
<path d="M439.859 384.907L441.901 410.036C446.413 388.511 453.502 365.375 452.396 343.407C451.289 321.439 449.246 300.419 437.013 280.529C442.331 295.504 444.771 311.369 444.2 327.269C443.081 352.976 439.859 384.907 439.859 384.907Z" fill="black"/>
</g>
<path d="M162.574 338.13C161.917 336.616 160.755 335.384 159.291 334.649C157.588 334.059 155.74 334.895 154.123 335.707L110.006 357.921C107.1 359.385 103.926 361.119 102.856 364.194C101.458 368.13 104.072 372.287 106.504 375.67C110.566 381.316 115.43 387.466 122.312 388.265L160.264 361.943C164.897 361.254 167.779 356.027 167.56 351.291C167.341 346.556 164.933 342.239 162.574 338.13Z" fill="#5ED8FF"/>
<path d="M167.365 354.219C167.253 354.377 167.122 354.522 166.976 354.649L165.76 355.793C164.714 356.777 163.17 358.167 161.236 359.84C157.357 363.198 151.849 367.663 145.428 372.214C139.008 376.765 133.135 380.516 128.672 383.05C126.459 384.342 124.647 385.35 123.382 386.014L121.923 386.765C121.583 386.937 121.4 387.011 121.388 386.986C121.529 386.852 121.689 386.74 121.862 386.654L123.261 385.793L128.441 382.656C132.806 380 138.753 376.187 145.1 371.648C151.448 367.109 156.993 362.718 160.908 359.459L165.565 355.559L166.781 354.514C167.195 354.317 167.353 354.194 167.365 354.219Z" fill="black"/>
<g opacity="0.3">
<path d="M375.702 219.054C370.51 236.495 363.238 256.225 357.098 273.174C351.869 268.685 344.549 262.744 339.308 258.242C343.818 267.293 349.233 275.854 355.468 283.789C356.198 284.711 357.171 285.72 358.301 285.499C359.432 285.277 359.943 284.096 360.332 283.039L369.902 257.418C374.377 245.438 378.694 231.465 375.702 219.054Z" fill="black"/>
</g>
<path d="M293.622 29.302C309.43 24.7018 324.217 29.302 338.797 36.9526C353.377 44.6032 365.135 57.2353 372.748 71.9338C380.773 87.4195 384.324 105.464 381.418 122.696C378.511 139.928 368.881 156.164 354.459 165.746C334.748 178.882 307.582 178.193 287.287 166.029C266.992 153.864 253.628 131.441 250.09 107.837C247.658 91.5769 249.628 74.4307 257.13 59.8675C264.633 45.3043 277.9 33.4963 293.61 29.2897" fill="#263238"/>
<path d="M345.521 79.3507C342.469 73.4098 342.603 66.3619 340.937 59.8675C337.289 45.5872 324.399 35.2675 310.391 31.147C297.368 27.2971 282.301 30.1876 267.831 36.805C257.933 41.3437 248.922 48.3055 243.012 57.5305C239.147 63.7138 236.799 70.7423 236.165 78.0298C235.53 85.3173 236.627 92.6527 239.364 99.4243L311.583 80.2117C319.098 85.1317 326.795 90.2116 335.489 92.5117C338.019 93.3034 340.706 93.4262 343.296 92.8684C344.581 92.561 345.752 91.8862 346.668 90.9244C347.584 89.9626 348.208 88.7544 348.464 87.4441C348.768 84.5167 346.847 81.946 345.521 79.3507Z" fill="#263238"/>
<path d="M362.752 208.882L344.111 76.2634C343.284 69.9904 340.463 63.5944 334.225 63.8896L268.561 57.4936C247.986 58.453 238.331 85.7836 240.155 106.484C242.186 129.535 245.554 157.591 250.795 174.221C261.338 207.64 287.956 207.984 287.956 207.984C287.956 207.984 289.573 214.626 291.604 227.049L334.164 255.684L362.752 208.882Z" fill="#FFBF9D"/>
<path d="M256.024 131.712C256.187 132.859 256.787 133.896 257.696 134.601C258.605 135.307 259.75 135.625 260.888 135.488C261.447 135.448 261.993 135.295 262.493 135.038C262.992 134.781 263.436 134.425 263.798 133.992C264.159 133.558 264.432 133.056 264.598 132.514C264.764 131.973 264.822 131.403 264.767 130.838C264.6 129.692 264 128.656 263.092 127.949C262.185 127.242 261.041 126.92 259.903 127.05C259.343 127.093 258.798 127.249 258.299 127.508C257.8 127.766 257.357 128.123 256.996 128.557C256.635 128.991 256.363 129.494 256.196 130.036C256.029 130.577 255.97 131.147 256.024 131.712Z" fill="#263238"/>
<path d="M248.363 120.088C248.983 120.58 251.901 117.628 256.583 116.903C261.265 116.177 265.034 118.034 265.46 117.37C265.667 117.075 264.961 116.14 263.307 115.254C261.07 114.156 258.553 113.778 256.097 114.172C253.664 114.537 251.41 115.679 249.664 117.431C248.387 118.76 248.059 119.83 248.363 120.088Z" fill="#263238"/>
<path d="M299.228 124.602C299.389 125.752 299.987 126.792 300.897 127.5C301.806 128.208 302.953 128.528 304.092 128.391C304.651 128.351 305.197 128.198 305.697 127.941C306.197 127.684 306.641 127.328 307.002 126.895C307.364 126.461 307.636 125.959 307.802 125.417C307.969 124.876 308.026 124.306 307.971 123.741C307.811 122.592 307.212 121.552 306.303 120.844C305.394 120.136 304.247 119.816 303.107 119.953C302.548 119.995 302.004 120.149 301.505 120.406C301.006 120.664 300.562 121.019 300.201 121.453C299.84 121.886 299.568 122.387 299.4 122.928C299.233 123.469 299.175 124.038 299.228 124.602Z" fill="#263238"/>
<path d="M292.832 113.828C293.452 114.32 296.383 111.368 301.052 110.642C305.722 109.916 309.503 111.774 309.929 111.109C310.136 110.814 309.43 109.879 307.777 108.994C305.535 107.893 303.014 107.515 300.554 107.911C298.09 108.278 295.809 109.439 294.048 111.22C292.832 112.45 292.504 113.68 292.832 113.828Z" fill="#263238"/>
<path d="M282.764 151.552C282.764 151.281 279.76 151.22 274.969 151.343C273.753 151.343 272.537 151.343 272.257 150.543C271.978 149.744 272.148 148.341 272.513 146.853C273.194 143.762 273.911 140.519 274.665 137.124C277.583 123.274 279.529 111.97 278.957 111.86C278.386 111.749 275.589 122.93 272.659 136.706C271.965 140.113 271.297 143.372 270.676 146.484C270.433 147.923 269.886 149.596 270.774 151.306C271.007 151.708 271.329 152.049 271.716 152.303C272.102 152.557 272.541 152.717 272.999 152.769C273.685 152.863 274.38 152.863 275.066 152.769C279.845 152.253 282.788 151.81 282.764 151.552Z" fill="#263238"/>
<path d="M287.968 207.984C303.956 205.761 319.019 199.088 331.476 188.71C331.476 188.71 320.861 215.586 290.132 218.292L287.968 207.984Z" fill="#FF9A6C"/>
<path d="M286.46 162.646C287.178 161.377 288.203 160.314 289.439 159.557C290.675 158.799 292.081 158.372 293.525 158.317C294.575 158.255 295.626 158.41 296.614 158.772C297.603 159.133 298.509 159.694 299.277 160.42C300.02 161.113 300.536 162.02 300.753 163.019C300.971 164.017 300.88 165.059 300.493 166.004C299.508 167.984 296.93 168.809 294.607 168.464C292.281 168.016 290.065 167.105 288.09 165.783C287.501 165.478 286.977 165.06 286.545 164.553C286.333 164.319 286.195 164.028 286.147 163.714C286.1 163.401 286.145 163.081 286.278 162.794" fill="#FF9A6C"/>
<path d="M297.015 152.696C296.237 152.769 297.015 157.911 293.209 162.216C289.403 166.521 283.943 166.804 284.004 167.517C284.004 167.861 285.366 168.329 287.652 168.046C290.632 167.628 293.37 166.16 295.386 163.901C297.319 161.736 298.344 158.895 298.243 155.98C298.109 153.803 297.355 152.622 297.015 152.696Z" fill="#263238"/>
<path d="M291.494 99.7072C292.151 100.937 296.723 99.5965 302.305 99.412C307.886 99.2275 312.556 100.064 313.103 98.797C313.346 98.1943 312.397 97.1119 310.415 96.1402C307.799 94.9845 304.957 94.446 302.105 94.5653C299.252 94.6847 296.464 95.4588 293.951 96.829C292.066 97.9606 291.203 99.1291 291.494 99.7072Z" fill="#263238"/>
<path d="M246.624 99.2152C247.609 100.162 250.661 98.551 254.528 97.8991C258.395 97.2472 261.824 97.5178 262.359 96.2755C262.614 95.6728 261.933 94.6888 260.353 93.8893C258.244 92.9711 255.915 92.7053 253.657 93.1256C251.4 93.546 249.316 94.6335 247.67 96.2509C246.442 97.567 246.162 98.7478 246.624 99.2152Z" fill="#263238"/>
<path d="M356.149 67.9978C347.297 49.0066 315.267 25.4275 294.936 29.6464L264.791 53.9512C266.601 59.4663 269.85 64.3846 274.195 68.1863C278.54 71.9881 283.82 74.5322 289.476 75.55C295.495 76.5586 302.548 76.1035 306.658 80.6791C310.768 85.2547 309.783 93.1267 313.759 97.9852C319.268 104.726 331.622 102.708 336.073 110.211C338.031 113.483 337.8 117.739 339.794 120.986C342.469 125.303 354.739 129.596 359.25 127.407C363.761 125.217 362.74 117.05 363.725 112.536C365.415 104.849 363.81 101.195 362.399 97.2103C359.104 87.7639 360.381 77.0506 356.149 67.9978Z" fill="#263238"/>
<path d="M345.789 133.36C345.412 130.802 347.418 124.344 349.85 123.52C356.344 121.454 368.419 120.137 371.106 137.21C374.754 160.58 350.872 159.461 350.714 158.796C350.556 158.132 347.102 142.142 345.789 133.36Z" fill="#FFBF9D"/>
<path d="M356.368 148.833C356.465 148.735 356.818 149.055 357.584 149.252C358.605 149.518 359.688 149.368 360.6 148.833C362.886 147.542 364.321 143.298 363.773 139.067C363.516 137.059 362.818 135.134 361.731 133.434C361.401 132.739 360.908 132.136 360.296 131.677C359.684 131.218 358.97 130.918 358.216 130.802C357.735 130.751 357.252 130.874 356.852 131.149C356.451 131.423 356.16 131.832 356.028 132.302C355.821 133.003 356.028 133.446 355.918 133.532C355.809 133.618 355.371 133.225 355.395 132.228C355.435 131.632 355.676 131.068 356.076 130.629C356.632 130.038 357.397 129.693 358.204 129.67C360.004 129.51 361.852 130.9 362.971 132.61C364.273 134.474 365.108 136.631 365.403 138.895C365.999 143.618 364.309 148.403 361.123 149.965C360.534 150.248 359.89 150.395 359.238 150.395C358.586 150.395 357.942 150.248 357.353 149.965C356.502 149.35 356.295 148.883 356.368 148.833Z" fill="#FF9A6C"/>
<path d="M270.725 46.0915C269.667 55.9315 256.692 69.769 251.269 77.9239C240.848 93.4834 239 98.4649 242.672 130.15C235.765 119.855 230.22 109.621 229.296 97.2103C228.372 84.7996 231.46 71.9215 238.951 62.0569C246.442 52.1923 258.492 45.6979 270.786 46.0669" fill="#263238"/>
<path d="M325.822 12.7216C330.686 7.29728 337.715 3.76719 345.011 1.92219C355.407 -0.710013 366.826 0.00339112 376.286 4.57899C385.747 9.15459 393.067 17.74 394.976 27.58C395.915 32.6347 395.473 37.8526 393.699 42.6725C391.925 47.4924 388.886 51.732 384.908 54.9352C390.317 60.2402 396.912 64.1473 404.132 66.325C402.163 69.3139 398.527 71.0605 394.854 71.6878C391.162 72.1547 387.426 72.1299 383.74 71.614C386.256 75.4166 390.021 78.1963 394.368 79.4614C388.384 80.8588 382.142 80.651 376.262 78.8587C370.51 77.0953 365.006 74.5945 359.882 71.4172C342.092 60.9745 332.279 51.8233 320.265 35.7472C318.696 28.81 320.922 18.1582 325.822 12.7216Z" fill="#263238"/>
<path d="M364.175 62.02C351.115 42.7213 334.492 32.4016 319.45 29.1913L364.175 62.02Z" fill="#263238"/>
<path d="M319.45 29.1913C320.14 29.4704 320.852 29.6885 321.578 29.8432C322.952 30.2368 324.934 30.8395 327.318 31.762C333.523 34.2003 339.357 37.513 344.646 41.602C349.936 45.6811 354.757 50.3473 359.019 55.5133C360.624 57.5182 361.925 59.2033 362.764 60.3103C363.182 60.9377 363.654 61.5263 364.175 62.0692C363.823 61.3964 363.416 60.7546 362.959 60.1504C362.18 58.9204 360.94 57.2599 359.372 55.2304C355.217 49.9093 350.43 45.1255 345.12 40.987C339.767 36.8569 333.821 33.58 327.488 31.27C325.578 30.5826 323.629 30.0117 321.651 29.5603C320.928 29.378 320.192 29.2546 319.45 29.1913Z" fill="#455A64"/>
<path d="M379.74 78.4651L379.448 78.5635L378.597 78.9079C377.867 79.2277 376.773 79.6459 375.338 80.1379C371.282 81.5113 367.076 82.3787 362.813 82.7209C356.492 83.1968 350.137 82.7829 343.928 81.4909C336.324 79.875 328.89 77.5315 321.724 74.4922C314.063 71.3311 306.84 68.0839 300.408 64.8982C294.694 62.1019 289.195 58.8786 283.955 55.255C280.433 52.8009 277.107 50.0701 274.008 47.0878C272.89 46.0423 272.087 45.169 271.576 44.6278L270.932 43.9759C270.786 43.8406 270.713 43.7668 270.701 43.7791C270.689 43.7914 270.701 43.8652 270.883 44.0251L271.479 44.7262C272.002 45.3412 272.78 46.2391 273.911 47.3215C276.958 50.3907 280.257 53.1929 283.773 55.6978C288.994 59.408 294.495 62.6981 300.225 65.5378C306.67 68.7727 313.881 72.0445 321.554 75.2179C328.764 78.2657 336.249 80.6013 343.904 82.192C350.174 83.4579 356.59 83.8141 362.959 83.2498C367.216 82.8562 371.408 81.9223 375.435 80.47C376.858 79.9165 377.94 79.4614 378.657 79.0924L379.472 78.6865C379.654 78.5266 379.752 78.4774 379.74 78.4651Z" fill="#455A64"/>
<path d="M310.841 194.294L308.64 189.94C308.798 189.854 324.071 181.933 329.944 176.939C343.782 165.18 356.502 146.398 356.636 146.189L360.648 148.956C360.113 149.756 347.43 168.489 333.069 180.69C326.746 186.029 311.485 193.962 310.841 194.294Z" fill="#455A64"/>
<path d="M322.211 180.703C322.211 180.703 301.344 190.124 301.344 192.215C301.344 194.306 304.652 198.488 307.132 198.279C309.613 198.07 316.787 193.987 318.076 192.314C319.365 190.641 321.651 186.336 324.156 184.245L322.211 180.703Z" fill="#263238"/>
<path d="M360.478 117.37L355.614 117.136C355.79 102.949 353.375 88.8501 348.488 75.55C337.933 48.0472 317.638 33.2872 288.187 31.6636C285.508 31.5448 282.824 31.7304 280.186 32.2171L282.314 30.1753C283.345 29.1907 284.544 28.4031 285.852 27.8506C287.646 27.0923 289.595 26.7883 291.531 26.965C328.716 30.2245 345.521 54.1357 353.073 73.9141C358.217 87.8005 360.729 102.543 360.478 117.37Z" fill="#455A64"/>
<path d="M358.046 162.105C366.555 162.105 373.453 152.072 373.453 139.694C373.453 127.317 366.555 117.284 358.046 117.284C349.537 117.284 342.639 127.317 342.639 139.694C342.639 152.072 349.537 162.105 358.046 162.105Z" fill="#455A64"/>
<path d="M373.453 139.694C373.438 139.593 373.438 139.489 373.453 139.387C373.453 139.141 373.453 138.846 373.38 138.477C373.325 137.315 373.208 136.157 373.027 135.008C372.399 130.771 370.768 126.749 368.273 123.286C367.432 122.167 366.461 121.155 365.379 120.273C364.2 119.334 362.872 118.606 361.451 118.12C359.93 117.622 358.319 117.466 356.733 117.665C355.054 117.92 353.447 118.528 352.015 119.449C348.98 121.585 346.636 124.58 345.278 128.059C343.759 131.763 342.978 135.734 342.978 139.744C342.978 143.754 343.759 147.724 345.278 151.429C346.635 154.908 348.979 157.904 352.015 160.039C353.447 160.96 355.054 161.567 356.733 161.822C358.32 162.015 359.929 161.86 361.451 161.367C362.872 160.881 364.2 160.153 365.379 159.215C366.458 158.329 367.429 157.318 368.273 156.201C370.768 152.738 372.399 148.717 373.027 144.479C373.207 143.33 373.325 142.172 373.38 141.011C373.38 140.642 373.38 140.346 373.453 140.1C373.437 139.999 373.437 139.895 373.453 139.793C373.472 139.894 373.472 139.999 373.453 140.1V141.011C373.44 142.183 373.359 143.353 373.21 144.516C372.666 148.829 371.069 152.938 368.565 156.472C367.713 157.63 366.725 158.68 365.622 159.596C364.406 160.589 363.027 161.359 361.548 161.871C359.954 162.401 358.265 162.573 356.599 162.376C354.839 162.12 353.153 161.492 351.65 160.531C348.504 158.366 346.069 155.299 344.658 151.724C343.093 147.945 342.287 143.89 342.287 139.793C342.287 135.696 343.093 131.64 344.658 127.862C346.069 124.287 348.504 121.22 351.65 119.055C353.153 118.094 354.839 117.465 356.599 117.21C358.265 117.013 359.954 117.185 361.548 117.714C363.027 118.226 364.406 118.996 365.622 119.99C366.728 120.903 367.716 121.953 368.565 123.114C371.073 126.646 372.67 130.755 373.21 135.07C373.358 136.228 373.439 137.395 373.453 138.563V139.485C373.461 139.555 373.461 139.625 373.453 139.694Z" fill="#263238"/>
<path d="M360.417 152.708C365.837 152.708 370.23 146.32 370.23 138.44C370.23 130.56 365.837 124.172 360.417 124.172C354.998 124.172 350.604 130.56 350.604 138.44C350.604 146.32 354.998 152.708 360.417 152.708Z" fill="#455A64"/>
<path d="M370.23 138.44C370.157 138.44 370.23 137.357 369.878 135.451C369.471 132.778 368.428 130.245 366.838 128.071C365.757 126.58 364.257 125.452 362.533 124.836C361.576 124.525 360.564 124.428 359.566 124.553C358.514 124.712 357.507 125.093 356.611 125.672C354.703 127.017 353.227 128.899 352.367 131.084C351.406 133.423 350.914 135.932 350.92 138.464C350.908 140.998 351.4 143.508 352.367 145.844C353.227 148.03 354.703 149.912 356.611 151.256C357.507 151.836 358.514 152.217 359.566 152.376C360.564 152.501 361.576 152.404 362.533 152.093C364.257 151.477 365.757 150.349 366.838 148.858C368.428 146.684 369.471 144.151 369.878 141.478C370.182 139.571 370.157 138.489 370.23 138.501C370.247 138.759 370.247 139.018 370.23 139.276C370.229 140.025 370.18 140.773 370.085 141.515C369.762 144.274 368.754 146.906 367.154 149.165C366.04 150.759 364.47 151.97 362.655 152.634C361.631 152.986 360.543 153.104 359.469 152.978C358.329 152.8 357.24 152.381 356.271 151.748C354.249 150.361 352.683 148.395 351.772 146.103C350.769 143.682 350.252 141.083 350.252 138.458C350.252 135.833 350.769 133.235 351.772 130.814C352.683 128.521 354.249 126.556 356.271 125.168C357.236 124.538 358.322 124.119 359.457 123.938C360.535 123.813 361.627 123.931 362.655 124.283C364.47 124.947 366.04 126.157 367.154 127.751C368.754 130.01 369.762 132.642 370.085 135.402C370.18 136.144 370.229 136.892 370.23 137.64C370.247 137.907 370.247 138.174 370.23 138.44Z" fill="#263238"/>
<path d="M361.098 148.698C364.993 148.698 368.151 144.105 368.151 138.44C368.151 132.774 364.993 128.182 361.098 128.182C357.203 128.182 354.045 132.774 354.045 138.44C354.045 144.105 357.203 148.698 361.098 148.698Z" fill="#455A64"/>
<path d="M368.151 138.44C368.09 138.44 368.09 137.665 367.871 136.3C367.558 134.38 366.8 132.564 365.658 130.998C364.889 129.937 363.821 129.135 362.594 128.698C361.895 128.472 361.155 128.409 360.428 128.513C359.702 128.618 359.008 128.887 358.399 129.301C355.76 131.06 354.362 134.75 354.349 138.428C354.337 142.105 355.76 145.808 358.399 147.566C359.008 147.981 359.702 148.25 360.428 148.354C361.155 148.459 361.895 148.395 362.594 148.169C363.821 147.732 364.889 146.931 365.658 145.869C366.8 144.304 367.558 142.487 367.871 140.568C368.09 139.202 368.09 138.428 368.151 138.44C368.18 138.623 368.18 138.81 368.151 138.993C368.157 139.532 368.129 140.07 368.066 140.605C367.847 142.604 367.127 144.513 365.974 146.152C365.154 147.286 364.014 148.143 362.703 148.612C361.957 148.866 361.164 148.954 360.381 148.87C359.551 148.754 358.755 148.461 358.046 148.009C356.574 147.001 355.435 145.57 354.775 143.901C354.043 142.15 353.666 140.268 353.666 138.366C353.666 136.465 354.043 134.583 354.775 132.831C355.435 131.162 356.574 129.731 358.046 128.723C358.755 128.271 359.551 127.978 360.381 127.862C361.164 127.778 361.957 127.866 362.703 128.12C364.014 128.589 365.154 129.446 365.974 130.58C367.127 132.219 367.847 134.128 368.066 136.127C368.129 136.662 368.157 137.2 368.151 137.739C368.195 137.97 368.195 138.208 368.151 138.44Z" fill="#263238"/>
</svg>
